<svg width="32" height="25" viewBox="0 0 32 25" fill="none" xmlns="http://www.w3.org/2000/svg">
<path fill-rule="evenodd" clip-rule="evenodd" d="M19.9655 12.1759C19.5374 12.1759 19.1508 12.3481 18.8671 12.625C18.5741 12.9112 18.3909 13.3089 18.3909 13.7504C18.3909 14.62 19.0959 15.325 19.9655 15.325C20.8351 15.325 21.54 14.62 21.54 13.7504C21.54 13.3089 21.3568 12.9112 21.0639 12.625C20.7802 12.3481 20.3935 12.1759 19.9655 12.1759" fill="black"/>
<path fill-rule="evenodd" clip-rule="evenodd" d="M18.5842 17.1137H12.6102C12.3915 17.1137 12.1855 17.2065 12.0462 17.3661C11.9002 17.5316 11.836 17.7477 11.8714 17.9596C11.988 18.6874 12.3257 19.3248 12.8044 19.8339C13.4958 20.5684 14.4878 21.026 15.5964 21.026C16.7538 21.026 17.7923 20.5321 18.4854 19.7377C18.9152 19.2455 19.2132 18.6401 19.3221 17.9596C19.355 17.7452 19.2925 17.5282 19.1473 17.3661C19.0055 17.2049 18.7995 17.1137 18.5842 17.1137" fill="black"/>
<mask id="mask0" mask-type="alpha" maskUnits="userSpaceOnUse" x="0" y="0" width="32" height="25">
<path fill-rule="evenodd" clip-rule="evenodd" d="M0 0H31.5965V25H0V0Z" fill="white"/>
</mask>
<g mask="url(#mask0)">
<path fill-rule="evenodd" clip-rule="evenodd" d="M24.4211 15.5147C24.1813 15.5493 23.988 15.73 23.9407 15.9689C23.8132 16.6173 23.6148 17.2353 23.3666 17.8229C22.8094 19.1451 21.9753 20.2975 20.9419 21.1949C20.7224 21.3849 20.4936 21.5605 20.2572 21.7268C18.8793 22.7028 17.2372 23.2693 15.4989 23.2693C13.7614 23.2693 12.1184 22.7028 10.7406 21.7268V21.7268C10.5793 21.6137 10.4248 21.4913 10.2712 21.3663C9.23612 20.5229 8.37665 19.4389 7.78229 18.1784V18.1784C7.45725 17.4886 7.21072 16.7482 7.05707 15.9689C7.00979 15.73 6.81645 15.5493 6.57668 15.5147C5.83541 15.4092 5.27735 14.7886 5.27735 14.0702C5.27735 13.3509 5.83541 12.7303 6.57668 12.6248H6.57752C6.57752 12.6248 7.92666 12.7852 9.89718 12.6636C9.62617 12.9465 9.45732 13.3281 9.45732 13.7502C9.45732 14.6198 10.1623 15.3248 11.0327 15.3248C11.9015 15.3248 12.6064 14.6198 12.6064 13.7502C12.6064 13.3086 12.4241 12.911 12.1311 12.6248C12.0653 12.5606 11.9943 12.5015 11.9184 12.45C12.739 12.3268 13.6094 12.1444 14.4098 11.8928V14.1495C14.4115 14.1614 14.4182 14.1715 14.4199 14.1833C14.4756 14.8224 15.0058 15.3248 15.6585 15.3248H15.9354C16.5947 15.3248 17.1292 14.8114 17.1748 14.1639C17.179 14.1588 17.1832 14.1546 17.1874 14.1495V11.1102C18.4513 10.3495 20.1711 9.24434 21.6055 7.62757C22.7537 8.84247 23.592 10.3968 23.9407 12.1714C23.988 12.4103 24.1813 12.591 24.4211 12.6248C25.1624 12.7303 25.7213 13.3509 25.7213 14.0702C25.7213 14.7886 25.1624 15.4092 24.4211 15.5147M31.5045 20.8776C31.4429 20.8109 31.3627 20.7535 31.2631 20.7045L31.0452 20.5965C30.8561 20.5112 30.7194 20.3482 30.6358 20.1051C30.553 19.8636 30.5108 19.4457 30.5108 18.853C30.5108 17.7749 30.2356 16.8032 29.6843 15.9378C29.2782 15.2995 28.7159 14.8538 28.0042 14.5937C28.0329 14.1623 28.0498 13.73 28.0498 13.3037C28.0498 3.88335 20.7739 -0.000274658 15.5994 -0.000274658C15.5817 -0.000274658 15.5622 0.00563521 15.5445 0.00647947C15.5259 0.00563521 15.5074 -0.000274658 15.4896 -0.000274658C10.3658 -0.000274658 3.19205 3.81665 3.05275 13.0369C3.05106 13.1281 3.03924 13.2117 3.03924 13.3037C3.03924 13.6127 3.05021 13.9242 3.06541 14.2366C3.07976 14.5456 3.10256 14.8546 3.13211 15.1619C2.51833 15.487 2.04385 15.9834 1.71965 16.6639C1.30849 17.5301 1.10165 18.3195 1.10165 19.0337L1.11853 19.379C1.11853 20.2993 0.932793 20.8379 0.559627 20.9958C0.186461 21.1528 -0.00012207 21.3529 -0.00012207 21.5952C-0.00012207 21.9464 0.33674 22.312 1.01047 22.6936C1.68335 23.0752 2.49384 23.266 3.44026 23.266C4.5986 23.266 5.64718 22.9899 6.58769 22.4395C7.04359 22.1727 7.43111 21.8569 7.757 21.4948C9.7368 23.6654 12.5035 25.0001 15.4989 25.0001C18.5949 25.0001 21.4502 23.5801 23.4401 21.2803H24.0573C24.3308 21.5479 24.6297 21.7978 24.9834 22.0123C25.9408 22.594 27.0097 22.8844 28.1899 22.8844C29.1364 22.8844 29.9409 22.6936 30.6029 22.312C31.2648 21.9312 31.5966 21.5648 31.5966 21.2136C31.5966 21.0557 31.5662 20.9443 31.5045 20.8776" fill="black"/>
</g>
</svg>
