<svg width="26" height="25" viewBox="0 0 26 25" fill="none" xmlns="http://www.w3.org/2000/svg">
<path fill-rule="evenodd" clip-rule="evenodd" d="M17.634 11.3823C18.5154 11.3823 19.2297 12.0974 19.2297 12.978C19.2297 13.8594 18.5154 14.5728 17.634 14.5728C16.7534 14.5728 16.0392 13.8594 16.0392 12.978C16.0392 12.0974 16.7534 11.3823 17.634 11.3823" fill="black"/>
<path fill-rule="evenodd" clip-rule="evenodd" d="M7.72585 11.3823C8.60642 11.3823 9.32152 12.0974 9.32152 12.978C9.32152 13.8594 8.60642 14.5728 7.72585 14.5728C6.84528 14.5728 6.13019 13.8594 6.13019 12.978C6.13019 12.0974 6.84528 11.3823 7.72585 11.3823" fill="black"/>
<mask id="mask0" mask-type="alpha" maskUnits="userSpaceOnUse" x="0" y="0" width="26" height="25">
<path fill-rule="evenodd" clip-rule="evenodd" d="M0 0H25.3607V25H0V0Z" fill="white"/>
</mask>
<g mask="url(#mask0)">
<path fill-rule="evenodd" clip-rule="evenodd" d="M2.32254 13.4723C2.32254 12.9134 2.65856 12.4187 3.15246 12.1679C5.52316 11.7542 13.5445 8.57134 14.9139 7.20869C15.1394 7.55906 15.4382 7.8554 15.781 8.0901C16.5062 8.584 17.3792 8.81786 18.2378 8.9445C18.9318 9.04666 19.6351 9.07621 20.3358 9.11167C20.3603 9.11251 20.3839 9.12095 20.4067 9.12686C20.7824 9.87404 21.0644 10.6862 21.2341 11.5482C21.2822 11.7905 21.4773 11.9737 21.7204 12.0083C22.471 12.1147 23.0375 12.7437 23.0375 13.4723C23.0375 13.4757 23.0349 13.4791 23.0349 13.4833C23.029 14.206 22.4676 14.8299 21.7204 14.9363C21.4773 14.97 21.2822 15.1541 21.2341 15.3955C21.1235 15.9587 20.9513 16.4931 20.7503 17.0106C19.4232 17.952 18.6338 18.0491 17.0466 18.0491C16.4429 18.0491 16.0132 17.8321 15.4678 17.5577C14.973 17.3086 14.3863 17.0165 13.6011 16.8789C13.7598 16.6746 13.8704 16.4289 13.8704 16.1503V12.0455C13.8704 11.3777 13.3284 10.8348 12.6597 10.8348C11.9919 10.8348 11.4499 11.3777 11.4499 12.0455V16.1503C11.4499 16.4331 11.5622 16.6822 11.7251 16.8882C10.9594 17.0284 10.3811 17.3129 9.89392 17.5577C9.34937 17.8321 8.9188 18.0491 8.31515 18.0491C6.72793 18.0491 5.93854 17.952 4.6105 17.0106C4.40957 16.4931 4.23734 15.9587 4.1259 15.3955C4.07777 15.1541 3.88275 14.97 3.6396 14.9363C2.90087 14.8307 2.34618 14.2186 2.32845 13.5044C2.32845 13.4926 2.32254 13.4833 2.32254 13.4723M9.8805 19.9243C9.8805 19.5959 10.1152 19.3181 10.4563 19.1358C10.55 19.2168 10.6589 19.3004 10.783 19.3882C11.2904 19.7453 11.878 19.9243 12.5475 19.9243C13.174 19.9243 13.7945 19.7808 14.4117 19.4946C14.6379 19.3899 14.8085 19.2751 14.9512 19.1569C15.2678 19.3409 15.4814 19.6103 15.4814 19.9243C15.4814 20.4773 14.8541 20.9265 14.0816 20.9265H11.2803C10.5078 20.9265 9.8805 20.4773 9.8805 19.9243M0 13.4615C0 14.7423 0.87466 15.8652 2.09716 16.2341C3.28673 21.3377 7.67523 25.0001 12.68 25.0001C17.6849 25.0001 22.0733 21.3377 23.2629 16.2341C24.4854 15.8652 25.3609 14.7423 25.3609 13.4615C25.3609 12.7338 25.0713 12.0626 24.6028 11.5467C24.6163 11.4564 24.6028 10.7599 24.6028 10.6062C24.6028 4.75798 19.2611 -0.000305176 12.6952 -0.000305176C12.6927 -0.000305176 12.6902 0.000539091 12.6876 0.000539091C12.577 0.000539091 12.4707 0.0123588 12.3609 0.0148916C5.95039 0.174458 0.787701 4.85845 0.787701 10.6062C0.787701 10.7177 0.743799 11.4564 0.757307 11.5467C0.288739 12.0626 0 12.7338 0 13.4615" fill="black"/>
</g>
</svg>
