<svg width="32" height="25" viewBox="0 0 32 25" fill="none" xmlns="http://www.w3.org/2000/svg">
<mask id="mask0" mask-type="alpha" maskUnits="userSpaceOnUse" x="0" y="0" width="32" height="25">
<path fill-rule="evenodd" clip-rule="evenodd" d="M0 0H31.0892V25H0V0Z" fill="white"/>
</mask>
<g mask="url(#mask0)">
<path fill-rule="evenodd" clip-rule="evenodd" d="M24.4211 14.7809C24.1814 14.8155 23.988 14.9953 23.9407 15.2343C23.4654 17.6531 22.0985 19.6895 20.2572 20.993C18.8793 21.969 17.2372 22.5355 15.4989 22.5355C13.7614 22.5355 12.1184 21.969 10.7406 20.993C8.90008 19.6895 7.53236 17.6531 7.05703 15.2343C7.00976 14.9953 6.81642 14.8155 6.57665 14.7809C5.83538 14.6754 5.27731 14.0548 5.27731 13.3363C5.27731 12.617 5.83538 11.9965 6.57665 11.891C6.57665 11.891 7.15159 11.9289 8.0938 11.891C8.71011 11.8665 9.48262 11.8091 10.3598 11.6866C10.2501 11.7424 10.1487 11.8107 10.0567 11.891C9.74097 12.1653 9.53665 12.5647 9.53665 13.0164C9.53665 13.8429 10.2062 14.5124 11.0327 14.5124C11.8584 14.5124 12.5279 13.8429 12.5279 13.0164C12.5279 12.5647 12.3236 12.1653 12.0078 11.891C11.7993 11.7103 11.5435 11.587 11.2581 11.5431C12.2493 11.3658 13.3333 11.1066 14.2494 10.7242V11.891V14.9041C14.4461 15.5112 14.9383 16.0034 15.5445 16.0034C16.1515 16.0034 16.6429 15.5112 16.8404 14.9041V11.891V9.80392C18.2335 9.01199 19.7903 7.92542 21.1276 6.43528C22.519 7.70675 23.5456 9.42737 23.9407 11.4376C23.988 11.6757 24.1814 11.8572 24.4211 11.891C25.1624 11.9965 25.7213 12.617 25.7213 13.3363C25.7213 14.0548 25.1624 14.6754 24.4211 14.7809M28.8292 9.83537C28.1715 9.29335 27.5974 8.65424 27.2723 7.86654C25.371 3.25514 20.8339 -0.000366211 15.5446 -0.000366211C10.2552 -0.000366211 5.71812 3.25514 3.81682 7.86654C3.49178 8.65424 2.91767 9.29335 2.25914 9.83537C0.880451 10.9701 -0.00012207 12.6882 -0.00012207 14.6139V16.3692C-0.00012207 19.0818 2.1992 21.2803 4.91099 21.2803H7.55778C9.54857 23.5801 12.4039 25.0001 15.499 25.0001C18.5941 25.0001 21.4502 23.5801 23.4402 21.2803H26.1781C28.8899 21.2803 31.0893 19.0818 31.0893 16.3692V14.6139C31.0893 12.6882 30.2087 10.9701 28.8292 9.83537" fill="black"/>
</g>
<path fill-rule="evenodd" clip-rule="evenodd" d="M19.9657 11.5205C19.5909 11.5205 19.2532 11.6632 18.9906 11.8903C18.674 12.1656 18.4705 12.5649 18.4705 13.0166C18.4705 13.8423 19.1392 14.5118 19.9657 14.5118C20.7923 14.5118 21.4618 13.8423 21.4618 13.0166C21.4618 12.5649 21.2575 12.1656 20.9417 11.8903C20.6791 11.6632 20.3406 11.5205 19.9657 11.5205" fill="black"/>
<path fill-rule="evenodd" clip-rule="evenodd" d="M17.942 17.8728C17.8508 17.8728 17.7503 17.8998 17.6406 17.9547L17.3662 18.1058C17.047 18.2705 16.7414 18.3954 16.4485 18.4824C16.1563 18.5693 15.8228 18.6124 15.4488 18.6124C14.9549 18.6124 14.4712 18.4891 13.9967 18.2426C13.5214 17.9961 13.2293 17.8728 13.1195 17.8728C13.0283 17.8728 12.9506 17.9091 12.8865 17.9826C12.8232 18.0552 12.7911 18.1371 12.7911 18.2291C12.7911 18.631 13.1102 18.9805 13.7502 19.2768C14.3893 19.574 15.0335 19.7218 15.6819 19.7218C16.3758 19.7218 16.9854 19.5369 17.5105 19.1671C18.0357 18.7973 18.2982 18.4849 18.2982 18.2291C18.2982 18.1463 18.2662 18.067 18.202 17.9893C18.1378 17.9116 18.0517 17.8728 17.942 17.8728" fill="black"/>
</svg>
