<svg width="28" height="25" viewBox="0 0 28 25" fill="none" xmlns="http://www.w3.org/2000/svg">
<path fill-rule="evenodd" clip-rule="evenodd" d="M3.96583 10.9006C4.23059 10.8638 4.44385 10.665 4.49615 10.4021C5.27997 6.42854 8.26073 3.40491 11.9046 2.60252C12.9097 2.70352 13.4811 3.65822 13.4811 4.34118C13.4811 4.99689 12.8349 5.52915 12.0414 5.52915C11.5835 5.52915 11.1481 5.34558 10.8761 5.03777C10.687 4.81893 10.3692 4.76202 10.114 4.89348C9.85894 5.02574 9.72455 5.31592 9.79376 5.59648C10.1977 7.27823 11.8925 8.49986 13.8199 8.49986C16.09 8.49986 17.9393 6.84457 17.9393 4.81092C17.9393 4.23457 17.7784 3.69589 17.5136 3.21013C20.3117 4.47825 22.4829 7.10589 23.1331 10.4021C23.1863 10.665 23.3987 10.8638 23.6635 10.9006C24.4819 11.0169 25.0983 11.699 25.0983 12.4894C25.0983 13.2798 24.4819 13.9627 23.6635 14.0782C23.3987 14.1159 23.1863 14.3146 23.1331 14.5768C22.2157 19.2284 18.2958 22.6048 13.815 22.6048C9.33345 22.6048 5.41356 19.2284 4.49615 14.5768C4.44385 14.3146 4.23059 14.1159 3.96583 14.0782C3.14741 13.9627 2.53098 13.2798 2.53098 12.4894C2.53098 11.699 3.14741 11.0169 3.96583 10.9006M2.28546 15.4867C3.58109 21.0249 8.36286 25 13.815 25C19.2663 25 24.0481 21.0249 25.3437 15.4867C26.6755 15.0867 27.6291 13.8674 27.6291 12.4783C27.6291 11.0883 26.6755 9.86986 25.3437 9.46906C24.1221 4.24907 19.7934 0.461522 14.7356 0.0398818C14.4395 -0.0154284 13.1889 -0.00981717 12.9282 0.0358738C7.85507 0.443887 3.51028 4.23624 2.28546 9.46906C0.953617 9.86986 0 11.0883 0 12.4783C0 13.8674 0.953617 15.0867 2.28546 15.4867" fill="black"/>
<path fill-rule="evenodd" clip-rule="evenodd" d="M9.89596 16.9498C9.7342 17.131 9.66339 17.3691 9.70362 17.6023C10.0151 19.5566 11.7436 20.9739 13.815 20.9739C15.884 20.9739 17.6134 19.5566 17.9273 17.6023C17.9635 17.3659 17.8943 17.1278 17.7349 16.9498C17.5772 16.7719 17.3503 16.6717 17.1129 16.6717H10.518C10.2774 16.6717 10.0497 16.7735 9.89596 16.9498" fill="black"/>
<path fill-rule="evenodd" clip-rule="evenodd" d="M8.88411 13.8694C9.84336 13.8694 10.6224 13.0943 10.6224 12.138C10.6224 11.1817 9.84336 10.4073 8.88411 10.4073C7.92406 10.4073 7.14587 11.1817 7.14587 12.138C7.14587 13.0943 7.92406 13.8694 8.88411 13.8694" fill="black"/>
<path fill-rule="evenodd" clip-rule="evenodd" d="M18.7454 13.8694C19.7055 13.8694 20.4837 13.0943 20.4837 12.138C20.4837 11.1817 19.7055 10.4073 18.7454 10.4073C17.7862 10.4073 17.0072 11.1817 17.0072 12.138C17.0072 13.0943 17.7862 13.8694 18.7454 13.8694" fill="black"/>
</svg>
