<svg width="32" height="25" viewBox="0 0 32 25" fill="none" xmlns="http://www.w3.org/2000/svg">
<mask id="mask0" mask-type="alpha" maskUnits="userSpaceOnUse" x="0" y="0" width="32" height="25">
<path fill-rule="evenodd" clip-rule="evenodd" d="M0 0H31.0882V25H0V0Z" fill="white"/>
</mask>
<g mask="url(#mask0)">
<path fill-rule="evenodd" clip-rule="evenodd" d="M29.1448 15.085C29.1448 17.4329 27.241 19.3367 24.8922 19.3367H24.5765C25.0442 18.5169 25.4055 17.6389 25.658 16.7094C26.8602 16.1556 27.6639 14.9491 27.6639 13.6236C27.6639 12.2964 26.8594 11.09 25.6563 10.5362C25.0999 8.51583 23.9939 6.70912 22.4371 5.28822L21.9694 4.86103C21.4291 4.36798 20.5907 4.4085 20.1027 4.95305L19.6798 5.42499C19.6342 5.47481 19.5861 5.51786 19.5405 5.56683C18.6616 6.51325 17.6738 7.27393 16.6421 7.87673C15.9211 8.29886 15.1799 8.63994 14.4454 8.92614C11.8628 9.93082 9.35361 10.1816 8.01546 10.2356C7.81959 10.2432 7.64652 10.2474 7.48864 10.2483C7.2894 10.2508 7.13321 10.2491 7.00404 10.2474C6.86136 10.2449 6.74907 10.2415 6.70179 10.2381L6.5017 10.2246L6.30077 10.2525C4.60887 10.4948 3.33319 11.9427 3.33319 13.6236C3.33319 14.9483 4.13693 16.1556 5.33915 16.7094C5.59159 17.6381 5.95293 18.5169 6.41981 19.3367H6.19439C3.85072 19.3367 1.94354 17.4295 1.94354 15.085V14.6131C1.94354 13.4261 2.44756 12.2855 3.32559 11.4817C4.05335 10.8173 5.09432 9.77041 5.72076 8.35458C6.31428 7.01389 7.16529 5.84206 8.19276 4.87369C8.66976 4.42539 9.18139 4.01761 9.72847 3.66387C11.4305 2.56379 13.439 1.94326 15.5437 1.94326C19.787 1.94326 23.6419 4.46 25.3659 8.35289C25.9906 9.76703 27.0324 10.8156 27.7619 11.4826C28.6399 12.2855 29.1448 13.4261 29.1448 14.6131V15.085ZM23.9398 15.5215C23.4645 17.9403 22.0976 19.9775 20.2572 21.2802C20.2555 21.2811 20.2538 21.2819 20.2529 21.2836C19.9254 21.5149 19.5817 21.7218 19.2263 21.905C19.2077 21.9143 19.19 21.9261 19.1714 21.9345C19.0448 21.9987 18.9139 22.0561 18.7839 22.1135C18.702 22.1498 18.6218 22.187 18.5391 22.2207C18.4234 22.268 18.3061 22.3102 18.1887 22.3516C18.0857 22.3879 17.9836 22.4225 17.8789 22.4546C17.7708 22.4892 17.6611 22.5204 17.5513 22.5491C17.4306 22.5812 17.309 22.6091 17.1874 22.6353C17.0878 22.6572 16.9882 22.6792 16.8869 22.6969C16.7425 22.7222 16.5956 22.7408 16.4487 22.7594C16.366 22.7695 16.2849 22.7813 16.2013 22.7889C15.9692 22.8092 15.7353 22.8218 15.4989 22.8218H15.4981H15.4972C15.2617 22.8218 15.0278 22.8092 14.7948 22.7889C14.712 22.7813 14.6302 22.7686 14.5474 22.7594C14.4014 22.7408 14.2545 22.7222 14.1101 22.6969H14.1092C14.0088 22.6792 13.91 22.6572 13.8095 22.6353H13.8087C13.6871 22.6091 13.5655 22.5812 13.4465 22.55C13.4457 22.55 13.4457 22.5491 13.4448 22.5491C13.3351 22.5204 13.227 22.4892 13.1181 22.4554C13.1181 22.4546 13.1172 22.4546 13.1164 22.4546C13.0134 22.4225 12.9112 22.3879 12.8099 22.3516C12.7517 22.3313 12.6951 22.3094 12.6377 22.2874C12.5769 22.2663 12.517 22.2444 12.4579 22.2207H12.4562C12.3751 22.1878 12.2958 22.1506 12.2164 22.1152C12.1455 22.084 12.0763 22.0502 12.0053 22.0181C11.9454 21.9911 11.8846 21.9649 11.8255 21.9345H11.8238C11.8103 21.9269 11.7977 21.9202 11.7842 21.9126C9.42275 20.7019 7.61772 18.3785 7.05629 15.5215C7.00901 15.2826 6.81652 15.1028 6.57675 15.0673C5.83549 14.9626 5.27659 14.3421 5.27659 13.6236C5.27659 12.9043 5.83549 12.2838 6.57675 12.1782C6.57675 12.1782 7.15085 12.2162 8.09304 12.1782C8.6587 12.1554 9.35775 12.1039 10.1471 12.0026C10.0703 12.0541 9.99938 12.1132 9.93353 12.1782C9.63973 12.4644 9.45737 12.8621 9.45737 13.3036C9.45737 14.1732 10.1623 14.8782 11.0319 14.8782C11.9015 14.8782 12.6065 14.1732 12.6065 13.3036C12.6065 12.8621 12.4233 12.4644 12.1303 12.1782C11.9454 11.9976 11.7141 11.8667 11.4583 11.7958C12.3946 11.6193 13.4077 11.3686 14.4453 11.0115V12.1782V15.1914C14.4453 15.7984 14.9375 16.2906 15.5436 16.2906C16.1507 16.2906 16.642 15.7984 16.642 15.1914V12.1782V10.0912C18.2326 9.29846 19.7894 8.2119 21.1267 6.72262C22.5181 7.99408 23.5456 9.71468 23.9398 11.7249C23.9879 11.963 24.1804 12.1445 24.4202 12.1782C25.1615 12.2838 25.7204 12.9043 25.7204 13.6236C25.7204 14.3421 25.1615 14.9626 24.4202 15.0673C24.1804 15.1028 23.9879 15.2826 23.9398 15.5215V15.5215ZM27.1438 7.56777C25.1733 3.11514 20.7182 -0.000183105 15.5437 -0.000183105C10.3692 -0.000183105 5.91489 3.11514 3.94354 7.56777C3.5155 8.53614 2.79704 9.33312 2.01525 10.0465C0.77672 11.1787 0 12.8039 0 14.6131V15.0851C0 18.5069 2.7734 21.2803 6.19434 21.2803H7.55698C9.54775 23.58 12.403 25.0001 15.4981 25.0001C18.5932 25.0001 21.4493 23.58 23.4401 21.2803H24.893C28.3148 21.2803 31.0882 18.5069 31.0882 15.0851V14.6131C31.0882 12.8039 30.3107 11.1787 29.073 10.0465C28.2912 9.33312 27.5727 8.53614 27.1438 7.56777V7.56777Z" fill="black"/>
</g>
<path fill-rule="evenodd" clip-rule="evenodd" d="M19.9651 11.7295C19.537 11.7295 19.1503 11.9008 18.8667 12.1778C18.5737 12.464 18.3905 12.8625 18.3905 13.3032C18.3905 14.1736 19.0955 14.8777 19.9651 14.8777C20.8346 14.8777 21.5396 14.1736 21.5396 13.3032C21.5396 12.8625 21.3564 12.464 21.0634 12.1778C20.7798 11.9008 20.3931 11.7295 19.9651 11.7295" fill="black"/>
<path fill-rule="evenodd" clip-rule="evenodd" d="M12.8409 15.6044C12.7809 15.5639 12.7193 15.5436 12.656 15.5436C12.3267 15.5436 12.0143 15.742 11.7171 16.1388C11.42 16.5365 11.2722 16.9451 11.2722 17.3655C11.2722 17.5479 11.3018 17.726 11.3609 17.8999C11.42 18.073 11.5145 18.1591 11.642 18.1591C11.7062 18.1591 11.7695 18.1372 11.8337 18.0907C11.8978 18.046 11.978 17.7851 12.0734 17.3106C12.1697 16.8353 12.336 16.4909 12.5732 16.2764C12.8113 16.0611 12.9295 15.8948 12.9295 15.7758C12.9295 15.7023 12.9 15.6458 12.8409 15.6044" fill="black"/>
<path fill-rule="evenodd" clip-rule="evenodd" d="M18.0666 15.5434C17.994 15.5434 17.9324 15.5654 17.8817 15.6118C17.8319 15.6574 17.8066 15.7021 17.8066 15.7486C17.8066 15.8854 17.9045 16.0365 18.1012 16.2003C18.2971 16.3657 18.4508 16.6224 18.5597 16.9744C18.6694 17.3257 18.7378 17.6119 18.7657 17.8305C18.7927 18.05 18.8931 18.1598 19.0671 18.1598C19.1853 18.1598 19.2773 18.0779 19.3406 17.9133C19.4048 17.7486 19.4368 17.5663 19.4368 17.3653C19.4368 16.8537 19.279 16.4223 18.9641 16.0702C18.6492 15.719 18.3494 15.5434 18.0666 15.5434" fill="black"/>
<path fill-rule="evenodd" clip-rule="evenodd" d="M17.9414 18.1595C17.8503 18.1595 17.749 18.1865 17.64 18.2422L17.3657 18.3925C17.0465 18.5571 16.7401 18.6821 16.4479 18.7699C16.1558 18.856 15.8224 18.8999 15.4475 18.8999C14.9544 18.8999 14.4707 18.7758 13.9962 18.5292C13.5209 18.2827 13.2288 18.1595 13.119 18.1595C13.0278 18.1595 12.9502 18.1966 12.886 18.2692C12.8227 18.3427 12.7898 18.4237 12.7898 18.5157C12.7898 18.9176 13.1097 19.2671 13.7497 19.5635C14.3888 19.8606 15.0321 20.0084 15.6814 20.0084C16.3753 20.0084 16.9849 19.8243 17.51 19.4537C18.0352 19.0848 18.2977 18.7715 18.2977 18.5157C18.2977 18.4338 18.2656 18.3536 18.2015 18.276C18.1373 18.1983 18.0512 18.1595 17.9414 18.1595" fill="black"/>
</svg>
